<?xml version="1.0" encoding="UTF-8"?>
<svg id="a" data-name="Layer 1" xmlns="http://www.w3.org/2000/svg" width="853.88" height="856.18" viewBox="0 0 853.88 856.18">
  <defs>
    <style>
      .b {
        stroke-width: 0px;
      }

      .b, .c {
        fill: #fff;
      }

      .c {
        stroke: #000;
        stroke-miterlimit: 10;
      }
    </style>
  </defs>
  <g>
    <path class="b" d="M722.43,530.1c-3.4-35.66-32.91-131.96-45.61-149.04-36.71-63.4-112.03-122.55-195.72-131.9-148.84-24.37-281.75,79.99-237.72,272.66,13.68,106.71,2.01,112.05-68.95,188.75,86.37-14.6,180.99-16.01,259.79,27.25-9.29-39.13-18.27-76.95-27.48-115.78,17.39,27.46,30.4,58.25,47.27,86.34,14.8,24.07,30.38,51.37,53.51,68.24,78.98,27.68,158,54.14,237.8,79.56-12.76-93.57-28.2-186.9-54.69-277.67-.45-1.69-2.21-3.82-3.79-4.3-45.25-13.56-90.44-27.35-135.9-40.17-23.74-6.69-36.81-23.09-45.9-45.11,59.18,13.27,118.7,24.84,178.41,35.66,4.68.86,6.89,2.45,8.19,6.86,10.64,36.07,21.47,72.08,32.18,108.12,2.75,9.25,2.64,9.42,12.15,9.57,9.75.16,19.51.04,29.83.04-17.89-40.65-34.67-78.95-52.39-119.52,3.54.17,6.24.3,9.02.43Z"/>
    <path class="b" d="M210.67,429.11c4.52-37.92,13.64-63.03,23.11-82.32,80.49-161.22,320.57-156.81,435.58-36.16,47.2-60.05,112.13-86.06,184.51-98.4-7.57-13.04-45.65-69.57-58.37-69.86-25.92,9.75-52.56,17.88-77.3,30.42,19.66-18.71,42.56-32.7,65.72-46.35-14.7-17.99-129.38-104.08-146.17-87.56-11.44,14.41-23.28,28.5-34.97,42.71-.23-.08-.47-.16-.7-.25,6.46-18.22,12.92-36.44,19.48-54.95C536.11-4.47,443.79-7.79,355.72,13.94c-3.34.82-3.76,1.84-3.15,5.01,8.56,44.63,16.69,89.33,25.3,133.95-19.41-41.08-33.65-84.33-50.87-126.35-1.21-3.12-2.57-4.11-5.89-2.83-12.09,3.31-116.39,45.63-108.62,56.86,9.03,15.12,17.39,29.97,26.44,45.38-14.12-9.85-26.16-24.71-39.29-36.54-2.54-2.52-4.05-2.61-6.57-.54-16.17,12.2-31.37,25.71-46.95,38.62,24.96,27.88,48.93,54.65,72.91,81.43-.37.37-.74.73-1.1,1.1-28.17-20.01-55.93-40.66-83.7-61.24-4.28-3.21-6.09-2.28-9.08,1.12-11.63,10.55-81.3,107.17-66.71,115.36,17.37,7.45,34.97,14.54,51.99,22.75-20.08.48-39.96-3.38-60-4.83-3.31-.36-4.63.7-5.33,3.51-19.84,64.52-23.9,132.3-9.26,198.36.68,3.25,2.27,4.45,5.21,4.81,11.54,1.48,21.19,2.84,33.22,4.16-10.45,5.1-19.64,9.73-28.98,14.04-3,1.38-3.84,2.78-2.9,6.08,5.08,17.93,9.36,36.1,14.94,53.86,28.82,87.14-2.81,181.62-57.33,251.7,72.63-13.74,175.44-125.69,210.15-196.93,27.89-55.29-11.65-91.44.52-193.67Z"/>
  </g>
  <g>
    <path class="c" d="M712.03,530.27l-.97-2.21,9.69.46-.07-.59c-4.44-37.88-32.66-129.29-45.07-145.98l-.09-.14c-33.72-58.23-106.96-121.38-194.57-131.16h-.09c-14.08-2.32-28.24-3.49-42.08-3.49-32.44,0-62.84,6.21-90.36,18.45-27.91,12.42-51.37,30.4-69.75,53.45-19.37,24.3-32.28,53.3-38.36,86.19-6.53,35.33-5,74.43,4.55,116.23l.03.14c6.06,47.26,7.66,77.55-1.22,102.21-8.51,23.65-26.67,43.17-56.76,75.5l-.87.93c-2.11,2.27-4.29,4.61-6.53,7.03l-.99,1.07,1.44-.23c34.44-5.57,65.64-8.27,95.36-8.27,59.8,0,112.19,11.62,155.71,34.53l.97.51-26.61-112.11,2.85-1.2c9.28,14.71,17.44,30.58,25.34,45.94,6.85,13.33,13.94,27.11,21.72,40.06,1.18,1.91,2.36,3.84,3.54,5.79,13.96,22.86,28.41,46.49,49.33,61.85l.13.07c77.95,27.32,156.83,53.72,234.46,78.49l.75.24-.11-.78c-11.3-82.51-26.58-179.63-54.22-274.36-.34-1.28-1.76-2.94-2.77-3.25-8.61-2.58-17.22-5.17-25.83-7.76-36.01-10.83-73.24-22.03-110.04-32.4-21.83-6.15-36.29-20.33-46.88-45.98l-1.1-2.67,2.82.63c52.74,11.83,109.41,23.16,178.36,35.65,4.7.86,7.74,2.43,9.36,7.91,6.4,21.7,12.98,43.75,19.35,65.07l.07.24c4.26,14.27,8.52,28.54,12.76,42.82l.14.46c1.18,3.98,1.83,6.18,2.96,7.04,1.12.86,3.27.93,7.64,1,3.39.06,7.03.08,11.47.08,2.92,0,5.86-.01,8.84-.02l7.2-.02-.31-.7c-17.52-39.82-33.78-76.91-51.16-116.72ZM756.3,646.71c-2.97.01-5.91.02-8.83.02-4.43,0-8.07-.03-11.45-.08-3.92-.06-6.19-.13-7.05-.8-.87-.67-1.56-3-2.61-6.53l-.14-.46c-4.24-14.28-8.5-28.55-12.76-42.82l-.07-.24c-6.37-21.32-12.95-43.37-19.35-65.06-1.75-5.94-5.18-7.7-10.14-8.61-68.93-12.49-125.59-23.81-178.32-35.64l-4.69-1.05,1.84,4.45c10.72,25.96,25.38,40.31,47.54,46.56,36.8,10.37,74.02,21.57,110.03,32.4,8.61,2.59,17.22,5.18,25.83,7.76.57.17,1.82,1.49,2.1,2.56,27.54,94.38,42.81,191.14,54.09,273.44-77.35-24.68-155.94-50.99-233.61-78.21-20.73-15.25-35.11-38.77-49.01-61.53-1.19-1.95-2.37-3.88-3.54-5.79-7.76-12.92-14.84-26.69-21.69-40-7.97-15.5-16.21-31.53-25.61-46.37l-.23-.36-4.42,1.86,26.3,110.79c-43.47-22.65-95.68-34.13-155.2-34.13-29.36,0-60.15,2.64-94.08,8.06,1.89-2.04,3.74-4.02,5.54-5.96l.87-.93c30.17-32.43,48.38-52,56.96-75.85,8.94-24.85,7.34-55.26,1.25-102.77l-.03-.14c-9.52-41.66-11.05-80.63-4.54-115.82,6.05-32.73,18.89-61.58,38.16-85.75,18.28-22.93,41.62-40.81,69.38-53.16,27.39-12.19,57.66-18.37,89.95-18.37,13.79,0,27.89,1.16,41.93,3.46l.12.02c87.28,9.75,160.24,72.66,193.83,130.67l.16.24c12.29,16.53,40.17,106.78,44.81,144.91l-10.12-.49,1.61,3.69c17.29,39.58,33.46,76.47,50.86,116.02l-5.68.02Z"/>
    <path class="c" d="M851.1,210.49c-10.87-17.83-44.3-65.32-55.23-66.6h-.12s-.11.03-.11.03c-6.91,2.59-13.94,5.1-20.75,7.53-18.56,6.62-37.76,13.47-55.62,22.48l-1.78-2.53c19.25-18.25,41.97-32.25,63.59-45.03l.54-.32-.43-.46c-8.23-8.75-33.65-29.44-61.95-48.92-42.37-29.18-73.19-43.5-80.39-36.77-8.32,10.48-16.94,20.9-25.28,30.97-3.21,3.88-6.43,7.76-9.63,11.66l-.67.81-3.11-1.1,19.31-54.49.17-.47-.47-.17C571.42,10.12,521.03,1.5,469.41,1.5c-37.82,0-75.95,4.68-113.34,13.9-1.19.29-1.9.59-2.12.93-.07.13-.27.46.09,2.34,4.08,21.27,8.13,42.92,12.05,63.85,4.26,22.8,8.67,46.37,13.17,69.67l-2.93.96c-12.28-26.04-22.66-53.37-32.7-79.79-5.78-15.21-11.75-30.94-18.03-46.26-.79-2.02-1.36-2.42-2.09-2.42-.48,0-1.08.15-1.85.44l-.14.05c-5.26,1.44-30.72,11.29-56.53,23.07-41.94,19.14-50.12,27.27-51.27,30.41-.17.48-.17.81.01,1.07l.06.1c5.28,8.84,10.44,17.77,15.42,26.41l.05.09c3.3,5.72,7.03,12.18,10.76,18.54l-2.28,2.1c-8.91-6.28-17.07-14.58-24.99-22.63-4.59-4.66-9.33-9.48-14.17-13.85-1.07-1.07-1.85-1.57-2.44-1.57-.52,0-1.21.37-2.16,1.16-11.25,8.48-22.21,17.76-32.82,26.75-3.85,3.26-8.21,6.96-12.48,10.51l-.4.33,72.82,81.33-3.01,2.99-1.03-.73c-26.08-18.53-52.21-37.89-77.48-56.62l-6.26-4.64c-1.51-1.13-2.65-1.68-3.49-1.68-.94,0-1.9.7-3.56,2.58l-.12.12c-10.84,9.83-70.19,92.74-68.16,110.65.12,1.11.49,1.86,1.16,2.27,4.36,1.87,8.74,3.72,13.12,5.57,12.7,5.36,25.83,10.91,38.47,16.99l-.65,3.03c-12.87.28-25.82-1.23-38.36-2.68-7.01-.81-14.25-1.65-21.44-2.17-.35-.04-.68-.06-.99-.06-1.5,0-2.21.34-2.73,2.42l-.03.09c-20.16,65.55-23.35,133.89-9.23,197.62.52,2.47,1.44,3.32,3.93,3.63,3.11.4,6.09.79,9.02,1.17,7.92,1.04,15.41,2.02,24.18,2.98l5.16.57-4.66,2.27c-2.99,1.46-5.88,2.88-8.78,4.31-6.98,3.43-13.57,6.68-20.23,9.75-2.46,1.13-2.79,1.82-2.09,4.31,1.93,6.8,3.77,13.74,5.54,20.46,2.91,10.98,5.92,22.34,9.38,33.34,25.47,76.99,5.19,169.98-54.24,248.75l-.85,1.13,1.37-.34c32.79-8.17,74.19-36.17,116.59-78.83,37.02-37.25,70.43-81.75,87.18-116.14,14.52-28.79,10.59-51.65,5.16-83.3-4.7-27.39-10.55-61.47-4.79-109.88,5-41.96,15.67-67.36,23.26-82.81,39.06-78.24,121.51-124.95,220.56-124.95,82.38,0,163.08,32.44,215.86,86.77l.39.41.35-.44c41.18-51.43,98.74-82.14,181.15-96.66l.72-.13-.38-.63ZM669.19,306.83c-52.97-54.28-133.74-86.67-216.18-86.67-99.44,0-182.22,46.92-221.46,125.51-7.62,15.52-18.34,41.03-23.36,83.14-5.78,48.55.08,82.71,4.8,110.17,5.4,31.46,9.3,54.18-5.07,82.68-16.71,34.3-50.05,78.7-87,115.88-41.68,41.94-82.36,69.65-114.75,78.21,58.96-78.78,78.98-171.59,53.54-248.52-3.45-10.97-6.46-22.32-9.37-33.29-1.78-6.72-3.62-13.66-5.55-20.47-.57-2-.47-2.2,1.54-3.13,6.67-3.08,13.27-6.32,20.33-9.8,2.82-1.39,5.71-2.81,8.7-4.27l7.77-3.79-8.6-.94c-8.76-.96-16.24-1.94-24.17-2.98-2.92-.38-5.9-.77-9.01-1.17-2.07-.26-2.65-.79-3.08-2.85-14.08-63.56-10.9-131.72,9.21-197.13l.03-.12c.42-1.68.76-1.68,1.76-1.68.27,0,.56.02.9.05,7.18.52,14.42,1.36,21.43,2.17,12.69,1.47,25.82,2.99,38.88,2.67h.39s.99-4.58.99-4.58l-.35-.17c-12.77-6.16-26.04-11.76-38.87-17.18-4.38-1.85-8.75-3.7-13.04-5.53-.32-.2-.54-.73-.63-1.5-2-17.7,57.06-100.02,67.84-109.8l.2-.2c1.38-1.57,2.22-2.24,2.81-2.24.34,0,1.18.19,2.9,1.48l6.26,4.64c25.27,18.73,51.4,38.1,77.49,56.63l1.71,1.22,4.29-4.25-72.76-81.27c4.14-3.45,8.35-7.02,12.09-10.18,10.59-8.97,21.54-18.24,32.79-26.72,1.11-.92,1.5-.94,1.54-.94.05,0,.49.04,1.76,1.29,4.84,4.36,9.57,9.17,14.17,13.84,8.02,8.16,16.32,16.59,25.44,22.96l.33.23,3.46-3.2-.2-.35c-3.79-6.46-7.6-13.06-10.96-18.88l-.05-.09c-4.99-8.64-10.15-17.57-15.44-26.44l-.05-.04s0-.07.07-.25c.68-1.88,6.37-9.59,50.74-29.84,25.77-11.76,51.15-21.59,56.38-23.02l.24-.08c.81-.31,1.26-.38,1.5-.38.12,0,.47,0,1.16,1.79,6.27,15.32,12.25,31.04,18.02,46.24,10.1,26.58,20.54,54.07,32.92,80.26l.19.4,4.61-1.51-.08-.43c-4.52-23.44-8.96-47.16-13.25-70.1-3.92-20.93-7.97-42.58-12.05-63.85-.2-1.04-.2-1.48-.2-1.61.14-.08.54-.27,1.49-.5,37.31-9.2,75.36-13.87,113.1-13.87,51.33,0,101.45,8.55,148.96,25.4l-19.48,54.97,4.71,1.66,1.11-1.35c3.2-3.89,6.41-7.77,9.63-11.65,8.34-10.08,16.96-20.5,25.24-30.93.94-.87,2.49-1.31,4.63-1.31,12.05,0,39.19,13.93,74.47,38.22,27.76,19.12,52.73,39.37,61.35,48.33-21.63,12.79-44.31,26.83-63.54,45.14l-.31.3,2.78,3.94.39-.2c17.91-9.08,37.21-15.97,55.89-22.63,6.76-2.41,13.76-4.91,20.63-7.49,10.12,1.5,42.01,45.98,53.99,65.49-82.03,14.57-139.48,45.24-180.68,96.45Z"/>
  </g>
</svg>